<svg width="41" height="40" viewBox="0 0 41 40" fill="none" xmlns="http://www.w3.org/2000/svg">
<rect x="0.5" width="40" height="40" rx="20" fill="#E5ECFF"/>
<path d="M12.8347 19.6649L16.3251 16.1746C16.6294 15.8702 16.7049 15.4052 16.5124 15.0202L14.4552 10.9059C14.15 10.2954 13.3363 10.1633 12.8537 10.646L11.4205 12.0791C11.0454 12.4542 10.8291 12.9635 10.8546 13.4933C11.2734 22.2229 18.2767 29.2262 27.0063 29.6451C27.5361 29.6705 28.0454 29.4542 28.4205 29.0791L29.8536 27.646C30.3363 27.1633 30.2042 26.3497 29.5937 26.0444L25.4794 23.9872C25.0944 23.7947 24.6294 23.8702 24.325 24.1746L20.8347 27.6649" stroke="#0D6ECB" stroke-width="1.5" stroke-linecap="round" stroke-linejoin="round"/>
</svg>
