<svg width="330" height="287" viewBox="0 0 330 287" fill="none" xmlns="http://www.w3.org/2000/svg">
<g clip-path="url(#clip0_20_542)">
<path d="M164.316 23.4076L166.556 25.3558L164.316 27.3034L165.643 28.4577L167.883 26.5101L170.123 28.4577L171.45 27.3034L169.21 25.3558L171.45 23.4076L170.123 22.2539L167.883 24.2015L165.643 22.2539L164.316 23.4076Z" fill="#FFCA9C"/>
<path d="M177.888 145.462L180.127 147.41L177.888 149.358L179.215 150.512L181.454 148.564L183.695 150.512L185.022 149.358L182.782 147.41L185.022 145.462L183.695 144.308L181.454 146.256L179.215 144.308L177.888 145.462Z" fill="#FFCA9C"/>
<path d="M278.729 162.562C279.053 162.562 279.316 162.791 279.316 163.073C279.316 163.355 279.053 163.583 278.729 163.583C278.405 163.583 278.143 163.355 278.143 163.073C278.142 162.791 278.405 162.562 278.729 162.562Z" fill="#FFCA9C"/>
<path d="M284.486 162.562C284.81 162.562 285.073 162.791 285.073 163.073C285.073 163.355 284.81 163.583 284.486 163.583C284.162 163.583 283.899 163.355 283.899 163.073C283.899 162.791 284.162 162.562 284.486 162.562Z" fill="#FFCA9C"/>
<path d="M284.486 157.069C284.81 157.069 285.073 156.841 285.073 156.559C285.073 156.277 284.81 156.049 284.486 156.049C284.162 156.049 283.899 156.277 283.899 156.559C283.899 156.841 284.162 157.069 284.486 157.069Z" fill="#FFCA9C"/>
<path d="M290.243 162.562C290.567 162.562 290.83 162.791 290.83 163.073C290.83 163.355 290.567 163.583 290.243 163.583C289.919 163.583 289.656 163.355 289.656 163.073C289.656 162.791 289.919 162.562 290.243 162.562Z" fill="#FFCA9C"/>
<path d="M290.243 157.069C290.567 157.069 290.83 156.841 290.83 156.559C290.83 156.277 290.567 156.049 290.243 156.049C289.919 156.049 289.656 156.277 289.656 156.559C289.656 156.841 289.919 157.069 290.243 157.069Z" fill="#FFCA9C"/>
<path d="M290.243 150.555C290.567 150.555 290.83 150.327 290.83 150.045C290.83 149.763 290.567 149.535 290.243 149.535C289.919 149.535 289.656 149.763 289.656 150.045C289.656 150.327 289.919 150.555 290.243 150.555Z" fill="#FFCA9C"/>
<path d="M296 162.562C296.324 162.562 296.587 162.791 296.587 163.073C296.587 163.355 296.324 163.583 296 163.583C295.676 163.583 295.413 163.355 295.413 163.073C295.413 162.791 295.676 162.562 296 162.562Z" fill="#FFCA9C"/>
<path d="M296 157.069C296.324 157.069 296.587 156.841 296.587 156.559C296.587 156.277 296.324 156.049 296 156.049C295.676 156.049 295.413 156.277 295.413 156.559C295.413 156.841 295.676 157.069 296 157.069Z" fill="#FFCA9C"/>
<path d="M296 150.555C296.324 150.555 296.587 150.327 296.587 150.045C296.587 149.763 296.324 149.535 296 149.535C295.676 149.535 295.413 149.763 295.413 150.045C295.413 150.327 295.676 150.555 296 150.555Z" fill="#FFCA9C"/>
<path d="M296 144.042C296.324 144.042 296.587 143.813 296.587 143.532C296.587 143.25 296.324 143.021 296 143.021C295.676 143.021 295.413 143.25 295.413 143.532C295.413 143.813 295.676 144.042 296 144.042Z" fill="#FFCA9C"/>
<path d="M301.757 162.562C302.081 162.562 302.344 162.791 302.344 163.073C302.344 163.355 302.081 163.583 301.757 163.583C301.433 163.583 301.171 163.355 301.171 163.073C301.171 162.791 301.433 162.562 301.757 162.562Z" fill="#FFCA9C"/>
<path d="M301.757 157.069C302.081 157.069 302.344 156.841 302.344 156.559C302.344 156.277 302.081 156.049 301.757 156.049C301.433 156.049 301.171 156.277 301.171 156.559C301.171 156.841 301.433 157.069 301.757 157.069Z" fill="#FFCA9C"/>
<path d="M301.757 150.555C302.081 150.555 302.344 150.327 302.344 150.045C302.344 149.763 302.081 149.535 301.757 149.535C301.433 149.535 301.171 149.763 301.171 150.045C301.171 150.327 301.433 150.555 301.757 150.555Z" fill="#FFCA9C"/>
<path d="M301.757 144.042C302.081 144.042 302.344 143.813 302.344 143.532C302.344 143.25 302.081 143.021 301.757 143.021C301.433 143.021 301.171 143.25 301.171 143.532C301.171 143.813 301.433 144.042 301.757 144.042Z" fill="#FFCA9C"/>
<path d="M301.757 137.528C302.081 137.528 302.344 137.3 302.344 137.018C302.344 136.736 302.081 136.508 301.757 136.508C301.433 136.508 301.171 136.736 301.171 137.018C301.171 137.3 301.433 137.528 301.757 137.528Z" fill="#FFCA9C"/>
<path d="M307.514 162.562C307.839 162.562 308.101 162.791 308.101 163.073C308.101 163.355 307.839 163.583 307.514 163.583C307.19 163.583 306.928 163.355 306.928 163.073C306.927 162.791 307.19 162.562 307.514 162.562Z" fill="#FFCA9C"/>
<path d="M307.514 157.069C307.839 157.069 308.101 156.841 308.101 156.559C308.101 156.277 307.839 156.049 307.514 156.049C307.19 156.049 306.928 156.277 306.928 156.559C306.928 156.841 307.19 157.069 307.514 157.069Z" fill="#FFCA9C"/>
<path d="M307.514 150.555C307.839 150.555 308.101 150.327 308.101 150.045C308.101 149.763 307.839 149.535 307.514 149.535C307.19 149.535 306.928 149.763 306.928 150.045C306.928 150.327 307.19 150.555 307.514 150.555Z" fill="#FFCA9C"/>
<path d="M307.514 144.042C307.839 144.042 308.101 143.813 308.101 143.532C308.101 143.25 307.839 143.021 307.514 143.021C307.19 143.021 306.928 143.25 306.928 143.532C306.928 143.813 307.19 144.042 307.514 144.042Z" fill="#FFCA9C"/>
<path d="M307.514 137.528C307.839 137.528 308.101 137.3 308.101 137.018C308.101 136.736 307.839 136.508 307.514 136.508C307.19 136.508 306.928 136.736 306.928 137.018C306.928 137.3 307.19 137.528 307.514 137.528Z" fill="#FFCA9C"/>
<path d="M307.514 129.993C307.839 129.993 308.101 130.222 308.101 130.503C308.101 130.785 307.839 131.014 307.514 131.014C307.19 131.014 306.928 130.785 306.928 130.503C306.927 130.222 307.19 129.993 307.514 129.993Z" fill="#FFCA9C"/>
<path d="M146.617 182.892C147.735 178.797 144.825 174.688 140.115 173.715C135.406 172.742 130.682 175.274 129.563 179.369C128.445 183.465 131.355 187.573 136.065 188.546C140.774 189.519 145.498 186.988 146.617 182.892Z" fill="#FFCA9C"/>
<path d="M143.145 169.97C147.843 169.97 151.664 173.293 151.664 177.378C151.664 181.463 147.843 184.787 143.145 184.787C138.448 184.787 134.627 181.463 134.627 177.378C134.627 173.293 138.448 169.97 143.145 169.97ZM143.145 169.756C138.305 169.756 134.381 173.168 134.381 177.378C134.381 181.588 138.305 185 143.145 185C147.986 185 151.91 181.588 151.91 177.378C151.91 173.169 147.986 169.756 143.145 169.756Z" fill="#FFCA9C"/>
<path d="M52.7195 27.2058C45.2912 27.2058 39.2693 32.443 39.2693 38.9034H66.1696C66.1696 32.443 60.1478 27.2058 52.7195 27.2058Z" fill="#FFCA9C"/>
<path d="M58.637 24.1465C65.7076 24.1465 71.4833 29.0576 71.6905 35.1638H45.5836C45.7901 29.0582 51.5665 24.1465 58.637 24.1465ZM58.637 23.8066C51.2087 23.8066 45.1869 29.0438 45.1869 35.5042H72.0872C72.0865 29.0438 66.0653 23.8066 58.637 23.8066Z" fill="#FFCA9C"/>
<path d="M306.236 276.345H23.7646C22.671 276.345 21.7846 275.574 21.7846 274.623C21.7846 273.672 22.671 272.901 23.7646 272.901H306.236C307.33 272.901 308.216 273.672 308.216 274.623C308.216 275.574 307.33 276.345 306.236 276.345Z" fill="#263238"/>
<path d="M166.975 90.112C166.598 90.062 166.216 90.1372 165.847 90.2205C163.107 90.8392 160.381 91.9603 158.195 93.5411C155.902 95.1999 158.163 97.229 160.385 95.7492C161.027 95.321 161.518 94.747 162.081 94.2413C163.174 93.2604 164.56 92.5297 166.065 92.1405C166.505 92.0268 166.967 91.9373 167.342 91.7071C167.718 91.477 167.987 91.0574 167.844 90.6774C167.724 90.3628 167.352 90.1619 166.975 90.112Z" fill="#B96E2B"/>
<path d="M168.745 91.9609C168.369 91.9109 167.986 91.9861 167.618 92.0693C164.878 92.6881 162.152 93.8091 159.966 95.3899C157.673 97.0488 159.934 99.0779 162.155 97.5981C162.798 97.1699 163.289 96.5959 163.852 96.0902C164.945 95.1093 166.331 94.3785 167.836 93.9894C168.276 93.8757 168.738 93.7862 169.113 93.556C169.489 93.3258 169.759 92.9062 169.615 92.5268C169.496 92.2117 169.122 92.0108 168.745 91.9609Z" fill="#B96E2B"/>
<path d="M168.695 94.3039C168.318 94.2545 167.936 94.3291 167.567 94.4124C164.828 95.0311 162.102 96.1522 159.916 97.733C157.622 99.3918 159.884 101.421 162.105 99.9411C162.748 99.5129 163.238 98.9389 163.802 98.4332C164.894 97.4523 166.281 96.7216 167.786 96.3324C168.226 96.2188 168.687 96.1292 169.063 95.899C169.438 95.6689 169.708 95.2493 169.565 94.8699C169.446 94.5547 169.072 94.3533 168.695 94.3039Z" fill="#B96E2B"/>
<path d="M166.695 96.9081C166.996 96.8404 167.308 96.779 167.616 96.8197C167.923 96.8605 168.228 97.0246 168.325 97.2812C168.443 97.5912 168.222 97.9339 167.915 98.1216C167.609 98.3093 167.232 98.3827 166.872 98.4757C165.644 98.7931 164.512 99.3901 163.62 100.191C163.16 100.604 162.759 101.072 162.235 101.422C160.421 102.63 158.575 100.974 160.447 99.6197C162.233 98.3282 164.458 97.4132 166.695 96.9081Z" fill="#B96E2B"/>
<path d="M157.927 93.7557C156.773 94.9043 156.192 95.6407 155.442 97.0195C154.691 98.3982 154.384 100.027 154.99 101.458C155.597 102.889 157.265 104.025 159.011 103.879C160.051 103.792 160.995 103.282 161.734 102.64C163.263 101.309 164.03 99.3447 163.747 97.4792C163.465 95.6137 162.141 93.8889 160.268 92.9475L157.927 93.7557Z" fill="#B96E2B"/>
<path d="M90.9955 90.3325C90.5909 93.8425 92.0951 97.3444 94.3444 100.148C96.5936 102.953 99.5485 105.169 102.47 107.354C110.114 113.072 117.759 118.79 125.404 124.507C126.77 125.529 128.195 126.578 129.896 126.956C132.498 127.534 135.178 126.435 137.542 125.233C144.826 121.529 151.389 116.561 156.804 110.657C158.463 108.847 160.109 106.644 159.721 104.293C159.372 102.174 157.355 100.556 155.15 100.033C152.945 99.5101 150.599 99.9051 148.427 100.565C142.485 102.368 137.411 106.045 132.47 109.653C125.452 104.827 117.639 99.4987 111.369 93.8339C108.556 91.2928 105.771 88.5123 102.101 87.2616C98.4317 86.012 91.4179 86.6652 90.9955 90.3325Z" fill="#F5A42E"/>
<path d="M158.413 105.953C158.814 105.419 159.489 105.102 160.102 104.754C160.715 104.405 161.33 103.951 161.472 103.326C161.559 102.944 161.455 102.549 161.312 102.18C160.402 99.8344 157.757 98.0786 154.916 97.9333C153.632 98.9907 152.727 100.09 152.037 101.506L158.413 105.953Z" fill="#F5A42E"/>
<path d="M131.854 109.641C130.068 112.08 129.505 115.119 130.351 117.919C130.448 118.24 131.037 118.151 130.939 117.827C130.135 115.161 130.638 112.27 132.341 109.943C132.547 109.661 132.061 109.359 131.854 109.641Z" fill="#A66F1F"/>
<path d="M131.254 113.118C130.873 114.138 130.885 115.223 131.269 116.24C131.319 116.373 131.533 116.42 131.666 116.365C131.826 116.3 131.86 116.153 131.81 116.019C131.479 115.143 131.487 114.177 131.813 113.301C131.932 112.983 131.372 112.799 131.254 113.118Z" fill="#A66F1F"/>
<path d="M153.094 99.5274C152.712 99.5698 152.818 100.082 153.2 100.039C154.664 99.8752 156.171 100.24 157.313 101.056C158.378 101.816 159.047 102.934 159.217 104.117C159.265 104.449 159.853 104.356 159.805 104.025C159.616 102.705 158.842 101.477 157.66 100.632C156.394 99.7282 154.71 99.346 153.094 99.5274Z" fill="#A66F1F"/>
<path d="M108.757 153.373C87.1424 155.625 87.4599 167.337 87.4599 167.337L99.5794 212.574L109.472 253.746H120.862C121.872 238.411 122.919 220.124 122.495 212.19C120.713 178.85 108.757 153.373 108.757 153.373Z" fill="#386CA6"/>
<path d="M109.471 253.746L110.196 258.691H120.505C120.635 257.036 120.754 255.388 120.861 253.746H109.471Z" fill="#488BD6"/>
<path d="M111.048 258.691C111.051 260.023 111.06 261.319 111.078 262.562H119.236L119.692 258.691H111.048Z" fill="#B96E2B"/>
<path d="M110.532 261.983L120.081 261.734C122.742 264.356 138.766 267.656 139.694 271.183H108.326C108.675 268.044 109.386 264.955 110.532 261.983Z" fill="#F5A42E"/>
<path d="M139.693 271.183C139.782 271.521 139.873 271.858 139.944 272.2C140.055 272.737 139.632 273.239 139.055 273.239H109.122C108.596 273.239 108.173 272.815 108.214 272.318C108.246 271.939 108.285 271.561 108.326 271.183H139.693Z" fill="#A66F1F"/>
<path d="M93.2679 166.666C93.2679 166.666 102.883 160.832 104.009 155.727L67.9167 156.942C67.9167 156.942 59.662 195.486 62.0512 253.745H73.3894L93.2679 166.666Z" fill="#508DBA"/>
<path d="M62.0512 253.746C62.0347 255.447 62.0288 257.1 62.0354 258.691H72.2601L73.3893 253.746H62.0512Z" fill="#62ACE3"/>
<path d="M62.8828 258.691C62.8861 260.023 62.8954 261.318 62.9132 262.562H71.0714L71.5268 258.691H62.8828Z" fill="#B96E2B"/>
<path d="M71.5334 261.982L61.9845 261.734C59.3234 264.356 57.4266 267.655 56.4986 271.183H73.7391C73.3906 268.043 72.6798 264.955 71.5334 261.982Z" fill="#F5A42E"/>
<path d="M56.4986 271.183C56.4095 271.521 56.3184 271.858 56.2478 272.2C56.1369 272.736 56.56 273.239 57.1368 273.239H72.9432C73.4699 273.239 73.8929 272.814 73.8513 272.317C73.8197 271.938 73.7807 271.561 73.7385 271.183H56.4986Z" fill="#A66F1F"/>
<path d="M100.703 160.856C102.611 159.041 104.282 156.971 104.715 155.006L68.2407 153.373C68.2407 153.373 67.9443 157.086 67.8051 158.629C78.6792 161.026 89.8029 161.921 100.703 160.856Z" fill="#386CA6"/>
<path d="M70.4497 219.734C69.2656 217.807 68.0275 215.93 67.0467 213.898C66.0554 211.844 65.3466 209.708 64.6298 207.559C64.542 207.296 64.1473 207.405 64.1988 207.671C64.6285 209.903 65.4819 212.075 66.4501 214.143C67.4163 216.207 68.5377 218.272 70.0299 220.041C70.222 220.269 70.5988 219.977 70.4497 219.734Z" fill="#386CA6"/>
<path d="M81.1938 78.9524C81.0559 76.9354 80.9173 74.9149 80.5635 72.918C80.215 70.9526 79.6587 69.0153 78.9036 67.1384C78.1433 67.3295 77.3691 66.507 76.9408 65.9278C76.5124 65.3486 76.5778 64.5278 77.0932 64.0049C77.3289 63.7661 77.643 63.5887 77.8562 63.3339C78.5076 62.5544 77.973 61.4741 77.449 60.6252C76.9249 59.7762 76.4484 58.6558 77.1724 57.9268C78.0984 56.9941 79.8461 57.7052 81.2466 57.5181C82.8696 57.3017 83.8483 55.9006 84.7882 54.7291C85.4607 53.8904 86.2606 53.0777 87.3364 52.665C88.4122 52.2522 89.82 52.3475 90.5836 53.1247C90.9981 53.5466 91.1889 54.1212 91.6627 54.4937C92.5986 55.2302 94.0566 54.8421 95.2835 54.585C96.5104 54.3273 98.2212 54.5104 98.4449 55.5906C98.5875 56.2783 97.9882 56.9309 97.9908 57.6301C97.9941 58.7189 99.3498 59.3693 100.513 59.7728C101.676 60.1763 103.038 60.7985 103.083 61.8863C103.138 63.1835 101.208 64.0921 101.354 65.3836C101.431 66.0627 102.066 66.5724 102.535 67.1194C103.004 67.6664 103.303 68.4987 102.753 68.9849C102.212 69.4625 101.128 69.327 100.765 69.9177C100.314 70.6507 101.536 71.5788 101.072 72.3055C100.831 72.6844 100.224 72.775 99.7484 72.6453C99.2725 72.5156 98.8831 72.224 98.468 71.9841C96.1534 70.6444 92.7227 71.0502 90.9037 72.8784C89.9731 73.8134 89.4755 75.005 88.8921 76.1324C88.3086 77.2603 87.5674 78.3997 86.3497 79.038C85.1314 79.678 82.0096 79.9655 81.1938 78.9524Z" fill="#3B1411"/>
<path d="M101.354 65.3847C101.207 64.0932 103.138 63.1846 103.083 61.8873C103.038 60.799 101.676 60.1774 100.513 59.7739C99.3498 59.3703 97.9941 58.7194 97.9908 57.6305C97.9888 56.932 98.5881 56.2788 98.4449 55.5911C98.2212 54.5109 96.5104 54.3277 95.2835 54.5855C94.0566 54.8432 92.5986 55.2307 91.6627 54.4942C91.1895 54.1217 90.9988 53.5471 90.5836 53.1252C89.82 52.348 88.4116 52.2527 87.3364 52.6654C86.2606 53.0781 85.4607 53.8909 84.7882 54.729C83.849 55.8999 82.8696 57.3016 81.2466 57.518C79.8461 57.7046 78.0984 56.994 77.1724 57.9267C76.4484 58.6563 76.9249 59.7762 77.449 60.6251C77.973 61.4741 78.5076 62.5543 77.8562 63.3338C77.643 63.5887 77.3289 63.7655 77.0932 64.0048C76.5778 64.5272 76.5124 65.3486 76.9408 65.9277C77.3691 66.5069 78.1433 67.3294 78.9036 67.1383C79.3075 68.1411 79.6494 69.1622 79.9385 70.1948C80.0045 69.3786 79.9867 68.5566 79.7979 67.7978C79.5286 66.7158 78.1822 66.0023 78.8389 64.7791C79.0482 64.3894 79.6164 63.9026 79.6177 63.4865C79.6184 63.2374 79.3036 62.8637 79.1736 62.6479C79.0132 62.381 78.8508 62.1141 78.7261 61.8328C78.1987 60.6486 78.796 59.3657 80.1906 58.8939C81.1786 58.5598 82.5257 59.007 83.387 58.4537C83.9836 58.0702 84.3849 57.4532 84.7803 56.9222C85.5419 55.8971 86.4758 54.4925 88.0888 54.5309C89.0518 54.5539 89.8557 55.0975 90.5249 55.6462C90.8179 55.8862 91.1572 56.2191 91.5763 56.2862C91.9393 56.3442 92.3623 56.203 92.7082 56.1336C93.6375 55.9464 94.7793 55.687 95.5666 56.3247C96.2577 56.8838 96.2874 57.7844 96.4101 58.5403C96.5771 59.5661 97.2054 59.9191 98.307 60.1803C99.2646 60.4076 100.296 60.7451 100.597 61.6635C100.794 62.2679 100.628 62.8792 100.443 63.4681C100.301 63.9233 100.131 64.3877 100.375 64.8377C100.777 65.5781 101.509 66.186 101.298 67.086C101.137 67.7731 100.495 68.094 100.047 68.6186C99.462 69.3051 100.16 70.243 99.8976 71.0346C99.7339 71.5277 99.3623 71.9163 99.0165 72.3175C99.2468 72.4529 99.4837 72.5764 99.7484 72.6481C100.224 72.7778 100.831 72.6871 101.072 72.3083C101.536 71.581 100.314 70.6535 100.765 69.9205C101.128 69.3298 102.212 69.4653 102.753 68.9877C103.303 68.5015 103.004 67.6692 102.535 67.1222C102.066 66.574 101.431 66.0638 101.354 65.3847Z" fill="#96332B"/>
<path opacity="0.44" d="M118.47 99.6882H93.9886C94.1054 99.8432 94.2229 99.9976 94.3443 100.149C96.5936 102.953 99.5484 105.169 102.47 107.355C110.114 113.072 117.759 118.79 125.404 124.507C126.77 125.529 128.195 126.578 129.896 126.956C130.533 127.098 131.176 127.137 131.817 127.101V109.204C127.458 106.207 122.832 103.025 118.47 99.6882Z" fill="#F5A42E"/>
<path d="M107.87 93.3673C107.716 90.7946 105.858 88.552 103.125 87.5578C97.3176 85.4449 90.8246 84.7481 84.5103 85.0948C78.7182 85.4128 73.0415 86.5602 67.5021 88.1002C63.8748 89.1087 61.675 92.2933 62.2716 95.564C65.6825 114.264 67.0705 133.477 66.2204 152.365C66.165 153.593 66.0336 155.362 67.3827 155.727C79.7946 159.095 97.4899 159.649 109.301 156.913C112.23 156.235 109.922 153.885 109.931 151.248C109.99 132.377 108.987 112.041 107.87 93.3673Z" fill="#F5A42E"/>
<path opacity="0.44" d="M109.931 151.248C109.983 134.486 109.198 116.571 108.238 99.6882H62.9858C65.8706 117.082 67.0078 134.863 66.2204 152.365C66.1894 153.048 66.136 153.899 66.3267 154.582H110.655C110.415 153.622 109.927 152.467 109.931 151.248Z" fill="#F5A42E"/>
<path d="M100.299 153.397C95.1627 153.817 89.9203 153.035 85.2231 151.185C80.8836 149.475 77.0754 146.815 74.1536 143.548C72.5379 141.741 71.2074 139.747 70.1943 137.635C70.0464 137.326 69.5178 137.57 69.6656 137.877C71.5103 141.723 74.4229 145.162 78.0799 147.854C81.9627 150.711 86.6685 152.665 91.6581 153.52C94.5489 154.015 97.4991 154.144 100.432 153.903C100.814 153.872 100.678 153.366 100.299 153.397Z" fill="#A66F1F"/>
<path d="M90.7724 90.4905C86.6864 91.5036 82.0868 90.5513 78.9868 88.016C78.7076 87.7881 78.2648 88.1377 78.5459 88.3673C81.7971 91.026 86.6078 92.0627 90.9057 90.9973C91.274 90.9066 91.144 90.3987 90.7724 90.4905Z" fill="#A66F1F"/>
<path d="M80.5833 73.1108C80.9615 77.3142 80.8493 81.5504 80.2507 85.7337C80.1299 86.5797 80.5424 87.4172 81.3456 87.9068C83.5626 89.2569 86.39 89.8538 89.0492 89.506C90.4009 89.3292 91.3499 88.2484 91.2371 87.0631C90.9784 84.3446 90.8991 81.7622 90.9737 78.9496C88.3265 76.0314 84.6516 74.2491 80.5833 73.1108Z" fill="#B96E2B"/>
<path d="M90.9731 78.9495C88.3265 76.0313 84.6516 74.249 80.5834 73.1113C80.7444 74.9034 80.8111 76.7011 80.7946 78.4983C82.636 82.8808 85.9683 87.0578 90.4596 88.8797C90.9949 88.4176 91.3031 87.761 91.2371 87.0635C90.9777 84.3445 90.8985 81.7621 90.9731 78.9495Z" fill="#6C301E"/>
<path d="M97.6879 66.2578C98.5881 72.1269 95.7924 82.9922 92.0832 82.6363C87.0461 82.0141 82.4155 78.5362 81.0797 74.2668C81.1028 74.3403 80.5312 74.6169 79.9478 74.5871C79.3716 74.5578 78.606 73.9666 78.2905 73.5556C77.6807 72.7618 77.0603 71.5242 77.7163 70.6156C78.505 69.5227 80.2514 69.3 80.9892 70.5829C80.9345 68.4367 81.7403 66.4506 82.5963 64.4462C82.8676 63.8114 83.4411 63.3034 84.1764 63.0795C87.7212 61.9998 92.1056 61.9511 95.6802 62.9349C96.3818 63.1283 96.9263 63.6105 97.1454 64.2218C97.3935 64.9152 97.6021 65.701 97.6879 66.2578Z" fill="#B96E2B"/>
<path d="M90.4669 66.624C89.3798 65.4249 86.392 66.252 85.2925 67.0224C85.0912 67.163 84.8489 67.3432 84.8734 67.5918C84.8859 67.7209 84.9677 67.8323 85.1162 67.8696C85.4542 67.9534 85.7749 67.71 86.0561 67.582C86.4283 67.4127 86.8223 67.2847 87.2329 67.2055C87.7384 67.1073 88.2631 67.0803 88.7786 67.1285C89.2775 67.175 89.7554 67.3771 90.2583 67.3116C90.6517 67.2594 90.6576 66.8341 90.4669 66.624Z" fill="#3B1411"/>
<path d="M88.8776 68.7266C88.8505 68.6555 88.805 68.5935 88.7403 68.5412C88.6802 68.485 88.609 68.4454 88.5265 68.4218C88.4473 68.3857 88.3621 68.369 88.271 68.3719C88.2123 68.3788 88.1536 68.3857 88.0948 68.3926C87.9826 68.4201 87.8849 68.4695 87.8024 68.5407C87.7681 68.5797 87.7331 68.6181 87.6988 68.6572C87.6388 68.7473 87.6084 68.8443 87.6084 68.9482V69.0102C87.6051 69.0894 87.6242 69.1634 87.6658 69.2323C87.6929 69.3041 87.7384 69.3655 87.8031 69.4177C87.8632 69.474 87.9344 69.5136 88.0163 69.5371C88.0955 69.5733 88.1806 69.5899 88.2717 69.5871L88.4479 69.5664C88.5601 69.5388 88.6578 69.4895 88.7409 69.4183C88.7753 69.3793 88.8103 69.3402 88.8446 69.3018C88.9046 69.2117 88.935 69.1147 88.935 69.0108V68.9488C88.9383 68.869 88.9191 68.7949 88.8776 68.7266Z" fill="#3B1411"/>
<path d="M96.1363 69.0836C96.1092 69.0118 96.0637 68.9504 95.999 68.8982C95.9389 68.8419 95.8676 68.8023 95.7858 68.7788C95.7066 68.7426 95.6215 68.726 95.5304 68.7288C95.4716 68.7357 95.4129 68.7426 95.3542 68.7495C95.242 68.777 95.1443 68.8264 95.0618 68.8976C95.0275 68.9366 94.9925 68.9757 94.9582 69.0141C94.8981 69.1042 94.8677 69.2012 94.8677 69.3051V69.3671C94.8644 69.4463 94.8836 69.5204 94.9252 69.5893C94.9522 69.661 94.9978 69.7224 95.0624 69.7747C95.1225 69.8309 95.1938 69.8705 95.2756 69.8941C95.3548 69.9302 95.44 69.9469 95.531 69.944L95.7073 69.9233C95.8195 69.8958 95.9171 69.8464 95.9996 69.7752C96.0346 69.7362 96.0689 69.6972 96.1033 69.6587C96.1633 69.5686 96.1937 69.4716 96.1937 69.3677V69.3057C96.197 69.2265 96.1778 69.1524 96.1363 69.0836Z" fill="#3B1411"/>
<path d="M97.4497 67.4562C97.1929 67.0217 96.6398 66.7984 96.1079 66.6762C95.5891 66.5573 95.0591 66.5373 94.5377 66.6503C94.2975 66.7026 94.1503 66.9184 94.182 67.1245C94.2361 67.4752 94.578 67.4872 94.8974 67.4907C95.3284 67.4953 95.7383 67.5441 96.1382 67.6916C96.4069 67.7909 97.814 68.4022 97.5315 67.629C97.5091 67.5676 97.4813 67.5102 97.4497 67.4562Z" fill="#3B1411"/>
<path d="M91.4087 79.0326C91.2127 78.9798 90.9678 79.032 90.7639 79.032C90.5797 79.032 90.3514 79.02 90.1956 79.001C89.9983 78.9769 89.8003 78.9408 89.6076 78.8977C89.3964 78.8506 89.197 78.7686 88.9753 78.7858C88.7403 78.8042 88.6565 79.0102 88.7944 79.1652C88.9429 79.3322 89.1852 79.3931 89.4076 79.4591C89.6181 79.5211 89.832 79.5659 90.0517 79.5951C90.2808 79.6255 90.5111 79.6468 90.7428 79.6502C90.9784 79.6543 91.2806 79.6726 91.4892 79.5664C91.744 79.4356 91.6813 79.1061 91.4087 79.0326Z" fill="#6C301E"/>
<path d="M80.4441 72.7876C80.2362 72.849 79.9431 72.7571 79.8956 72.5459C79.8712 72.438 79.9352 72.3496 80.0118 72.2658C80.0857 72.1849 80.1959 72.1378 80.3035 72.1366C80.4744 72.1349 80.6064 71.9908 80.5596 71.8445C80.3609 71.228 79.794 70.5972 78.9756 70.6684C78.6132 70.6999 78.2839 70.8784 78.1301 71.1717C78.0582 71.3089 78.043 71.4593 78.0859 71.6045C78.1103 71.6884 78.2324 71.9047 78.369 71.7968C78.4502 71.7325 78.4245 71.6373 78.4515 71.554C78.4799 71.4656 78.5222 71.3818 78.5816 71.3055C78.7023 71.1511 78.9089 71.092 79.1168 71.1098C79.5339 71.1448 79.8012 71.4306 79.9563 71.7463C79.5821 71.8933 79.3412 72.2532 79.4554 72.6251C79.5788 73.0281 80.1068 73.2921 80.5662 73.171C80.8467 73.0964 80.7219 72.7055 80.4441 72.7876Z" fill="#6C301E"/>
<path d="M94.2572 72.4909C93.813 71.9111 93.4679 71.2786 93.2316 70.6127C93.1187 70.2953 92.5346 70.4078 92.6488 70.7287C92.8435 71.278 93.0996 71.8107 93.4283 72.31C93.5985 72.5689 93.788 72.818 93.9906 73.0585C94.1833 73.2876 94.4097 73.4976 94.5826 73.7387C94.741 73.9591 94.875 74.2232 94.706 74.4689C94.5569 74.6858 94.2552 74.8092 94.0018 74.9108C93.3484 75.172 92.633 75.2897 91.9155 75.2759C91.5314 75.2684 91.5037 75.7879 91.8891 75.7954C92.6976 75.8103 93.4969 75.6766 94.2361 75.3884C94.8413 75.1525 95.4538 74.7547 95.3766 74.1107C95.3 73.4747 94.6446 72.9965 94.2572 72.4909Z" fill="#6C301E"/>
<path d="M92.6548 77.1707C91.1143 77.5174 89.4247 77.0668 88.374 76.0273C88.1199 75.7753 87.679 76.1271 87.9331 76.3786C89.1185 77.5518 91.049 78.069 92.7881 77.6775C93.159 77.5937 93.0283 77.0863 92.6548 77.1707Z" fill="#3B1411"/>
<path d="M88.7284 72.5373C86.8586 72.5373 85.3373 71.2143 85.3373 69.5881C85.3373 67.9614 86.8586 66.6389 88.7284 66.6389C90.5989 66.6389 92.1195 67.962 92.1195 69.5881C92.1195 71.2143 90.5982 72.5373 88.7284 72.5373ZM88.7284 67.0281C87.1055 67.0281 85.7855 68.1761 85.7855 69.5876C85.7855 70.999 87.1055 72.147 88.7284 72.147C90.3507 72.147 91.6714 70.999 91.6714 69.5876C91.6714 68.1761 90.3507 67.0281 88.7284 67.0281Z" fill="white"/>
<path d="M96.8939 72.5373C95.0242 72.5373 93.5029 71.2143 93.5029 69.5881C93.5029 67.9614 95.0242 66.6389 96.8939 66.6389C98.7644 66.6389 100.286 67.962 100.286 69.5881C100.286 71.2143 98.7644 72.5373 96.8939 72.5373ZM96.8939 67.0281C95.271 67.0281 93.951 68.1761 93.951 69.5876C93.951 70.999 95.271 72.147 96.8939 72.147C98.5169 72.147 99.8375 70.999 99.8375 69.5876C99.8375 68.1761 98.5169 67.0281 96.8939 67.0281Z" fill="white"/>
<path d="M93.7715 68.5859C93.6157 68.3098 93.2065 68.2059 92.8864 68.2249C92.5095 68.2484 92.1518 68.4 91.7571 68.5808L91.5479 68.2352C91.9723 68.0412 92.3907 67.865 92.8541 67.8357C93.3293 67.803 93.9246 67.9729 94.1741 68.4137L93.7715 68.5859Z" fill="white"/>
<path d="M80.6962 70.1036L80.5147 69.7471C82.1211 69.1295 83.9018 68.8207 85.6541 68.8592L85.6429 69.2489C83.9526 69.2133 82.2419 69.5089 80.6962 70.1036Z" fill="white"/>
<path d="M128.764 101.71H24.1065V151.583H128.764V101.71Z" fill="#9FDADC"/>
<path d="M61.6176 126.646H123.603" stroke="white" stroke-width="2" stroke-miterlimit="10" stroke-linecap="round"/>
<path d="M61.6176 129.975H123.603" stroke="white" stroke-width="2" stroke-miterlimit="10" stroke-linecap="round"/>
<path d="M61.6176 133.303H123.603" stroke="white" stroke-width="2" stroke-miterlimit="10" stroke-linecap="round"/>
<path d="M89.3614 136.631H123.604" stroke="white" stroke-width="2" stroke-miterlimit="10" stroke-linecap="round"/>
<path d="M120.436 109.638L122.042 112.468L125.633 112.921L123.035 115.124L123.648 118.234L120.436 116.766L117.224 118.234L117.838 115.124L115.239 112.921L118.83 112.468L120.436 109.638Z" fill="white"/>
<path d="M103.085 109.638L104.691 112.468L108.282 112.921L105.683 115.124L106.296 118.234L103.085 116.766L99.8726 118.234L100.486 115.124L97.8873 112.921L101.478 112.468L103.085 109.638Z" fill="white"/>
<path d="M85.7327 109.638L87.3391 112.468L90.9302 112.921L88.3317 115.124L88.9449 118.234L85.7327 116.766L82.5211 118.234L83.1342 115.124L80.5358 112.921L84.1269 112.468L85.7327 109.638Z" fill="white"/>
<path d="M68.3813 109.638L69.9871 112.468L73.5781 112.921L70.9797 115.124L71.5935 118.234L68.3813 116.766L65.1691 118.234L65.7829 115.124L63.1844 112.921L66.7755 112.468L68.3813 109.638Z" fill="white"/>
<path d="M55.5265 106.569H33.0218V134.387H55.5265V106.569Z" fill="white"/>
<path d="M74.1193 154.018C74.1589 153.689 74.0553 153.36 73.9424 153.043C73.1042 150.692 71.6898 148.376 69.7719 146.551C67.7595 144.635 65.5347 146.695 67.3378 148.555C67.8599 149.094 68.5416 149.493 69.1488 149.959C70.3263 150.863 71.2305 152.033 71.7473 153.322C71.8984 153.7 72.0225 154.096 72.3043 154.412C72.5861 154.727 73.0811 154.942 73.5101 154.8C73.8665 154.682 74.0804 154.348 74.1193 154.018Z" fill="#B96E2B"/>
<path d="M72.0785 155.643C72.1181 155.314 72.0145 154.985 71.9017 154.668C71.0635 152.317 69.6491 150.001 67.7311 148.176C65.7188 146.261 63.4939 148.32 65.297 150.18C65.8191 150.719 66.5009 151.118 67.1081 151.584C68.2855 152.488 69.1897 153.658 69.7065 154.947C69.8576 155.325 69.9824 155.721 70.2642 156.037C70.546 156.353 71.041 156.567 71.47 156.425C71.8251 156.306 72.0389 155.973 72.0785 155.643Z" fill="#B96E2B"/>
<path d="M69.3851 155.709C69.4247 155.379 69.3211 155.05 69.2082 154.734C68.37 152.383 66.9557 150.067 65.0377 148.241C63.0254 146.326 60.8005 148.385 62.6036 150.246C63.1257 150.784 63.8075 151.184 64.4147 151.65C65.5921 152.553 66.4963 153.724 67.0131 155.013C67.1642 155.39 67.289 155.787 67.5701 156.102C67.8519 156.417 68.3469 156.633 68.7759 156.49C69.1317 156.372 69.3455 156.039 69.3851 155.709Z" fill="#B96E2B"/>
<path d="M66.3009 154.092C66.3933 154.351 66.4778 154.619 66.4455 154.888C66.4131 155.158 66.2389 155.43 65.9478 155.527C65.5974 155.643 65.1935 155.468 64.9631 155.21C64.7328 154.952 64.6318 154.628 64.5084 154.321C64.0866 153.268 63.3481 152.313 62.3865 151.575C61.8908 151.194 61.3344 150.868 60.9081 150.428C59.4356 148.909 61.2526 147.228 62.8953 148.792C64.4615 150.282 65.6165 152.172 66.3009 154.092Z" fill="#B96E2B"/>
<path d="M69.5131 146.328C68.1403 145.379 67.2672 144.909 65.6488 144.321C64.0305 143.733 62.1456 143.542 60.5299 144.136C58.9142 144.729 57.6873 146.232 57.9361 147.741C58.0839 148.641 58.7136 149.437 59.4864 150.049C61.0863 151.316 63.3778 151.89 65.5069 151.558C67.6361 151.226 69.556 149.995 70.55 148.324L69.5131 146.328Z" fill="#B96E2B"/>
<path d="M70.3296 88.0218C66.2792 87.8341 62.3271 89.3035 59.2106 91.3883C56.094 93.4725 53.6857 96.1427 51.3117 98.7825C45.1004 105.69 38.8892 112.598 32.6779 119.505C31.5678 120.739 30.4286 122.027 30.0742 123.522C29.5317 125.809 30.919 128.086 32.4093 130.084C37.0029 136.239 43.0142 141.71 50.0478 146.139C52.2034 147.496 54.8104 148.823 57.4933 148.377C59.9102 147.975 61.675 146.147 62.1726 144.208C62.6703 142.268 62.1073 140.248 61.2493 138.391C58.9017 133.314 54.4421 129.076 50.0676 124.952C55.2842 118.63 61.0401 111.595 67.2547 105.883C70.0425 103.322 73.1069 100.772 74.3721 97.526C75.638 94.2801 74.5609 88.2181 70.3296 88.0218Z" fill="#F5A42E"/>
<path d="M55.5264 147.318C56.158 147.641 56.5534 148.213 56.9824 148.73C57.4114 149.246 57.9618 149.759 58.6865 149.854C59.1294 149.911 59.5782 149.803 59.9946 149.661C62.6465 148.761 64.5394 146.382 64.5737 143.907C63.2999 142.841 61.9951 142.106 60.3365 141.573L55.5264 147.318Z" fill="#F5A42E"/>
<path d="M50.0537 124.417C47.1695 122.979 43.6524 122.631 40.4758 123.496C40.1115 123.595 40.2409 124.103 40.6091 124.003C43.6333 123.18 46.9775 123.482 49.729 124.854C50.063 125.02 50.3877 124.583 50.0537 124.417Z" fill="#A66F1F"/>
<path d="M46.0324 124.056C44.843 123.773 43.5976 123.833 42.4472 124.215C42.2961 124.265 42.2532 124.452 42.3225 124.566C42.405 124.703 42.5746 124.725 42.7264 124.674C43.7177 124.346 44.8272 124.308 45.8489 124.551C46.2191 124.639 46.4039 124.145 46.0324 124.056Z" fill="#A66F1F"/>
<path d="M62.6597 142.397C62.5931 142.068 62.0103 142.184 62.0769 142.513C62.3337 143.777 61.9852 145.103 61.1008 146.134C60.2771 147.095 59.0244 147.728 57.6734 147.931C57.2946 147.987 57.4279 148.494 57.8067 148.438C59.3135 148.212 60.6883 147.482 61.6031 146.416C62.5825 145.274 62.9429 143.793 62.6597 142.397Z" fill="#A66F1F"/>
<path d="M192.536 67.6934H158.958V95.0209H192.536V67.6934Z" fill="#9FDADC"/>
<path d="M156.497 97.6349C157.376 97.6504 158.303 97.6555 159.071 97.283C159.838 96.9099 160.346 96.0168 159.904 95.3555C161.16 94.6719 162.116 93.4521 162.743 92.2106C162.883 91.935 162.519 91.6699 162.226 91.8294C160.208 92.9281 158.162 93.9429 156.511 95.4439C156.013 95.8962 156.179 97.0729 156.497 97.6349Z" fill="#B96E2B"/>
<path d="M181.377 78.9351C181.083 77.7929 179.952 77.0466 178.831 76.9835C177.738 76.9146 176.672 77.3853 175.747 78.011C174.827 77.3853 173.762 76.9146 172.669 76.9835C171.548 77.0466 170.411 77.7929 170.118 78.9351C169.775 80.2668 170.618 81.6099 171.537 82.5915C172.723 83.86 174.121 84.9162 175.649 85.6853C175.682 85.7083 175.715 85.7255 175.747 85.737L175.845 85.6853C177.373 84.9162 178.771 83.86 179.962 82.5915C180.876 81.6099 181.719 80.2668 181.377 78.9351Z" fill="white"/>
<path d="M259.373 95.8787C261.806 99.7113 264.053 103.443 266.15 107.222C264.393 110.789 261.401 114.227 257.532 116.278C254.999 112.795 252.599 109.238 250.345 105.613L259.373 95.8787Z" fill="#F5A42E"/>
<path d="M261.425 142.033C254.997 129.236 255.134 132.94 253.837 125.939C252.098 116.558 256.029 107.096 259.296 98.0237C259.859 96.4601 259.212 94.7542 257.72 93.8128C254.797 91.9692 241.522 85.503 223.558 93.4799C222.353 94.0149 221.926 95.3816 221.981 96.5847C222.161 100.497 222.245 104.54 223.052 108.438C223.936 112.707 225.568 116.829 226.243 121.101C226.673 123.826 226.959 126.553 226.969 129.286C226.993 134.754 221.277 140.428 221.021 145.962C234.237 147.798 248.84 146.613 261.425 142.033Z" fill="#F5A42E"/>
<path d="M221.02 145.961C220.997 146.465 221.015 146.967 221.09 147.467C236.951 150.096 247.903 149.565 262.367 143.929C262.036 143.255 261.726 142.632 261.425 142.032C248.84 146.613 234.237 147.797 221.02 145.961Z" fill="#7A5217"/>
<path d="M246.146 94.0143C245.566 94.5808 244.692 95.0417 243.83 95.4946C241.582 96.6759 239.334 97.8572 237.085 99.0385C236.724 99.2285 236.322 99.4294 235.817 99.4598C234.939 99.5132 234.288 99.0437 233.891 98.6212C232.742 97.3974 232.003 96.0313 232.189 94.6658C232.375 93.2996 233.577 91.9375 235.687 91.1615C239.183 89.8746 249.485 90.7534 246.146 94.0143Z" fill="#FFC9B9"/>
<path d="M173.664 110.815C173.3 110.632 172.933 110.432 172.682 110.14C172.43 109.846 172.316 109.436 172.504 109.109C172.729 108.714 173.316 108.566 173.816 108.639C174.316 108.711 174.758 108.952 175.206 109.16C176.735 109.87 178.476 110.231 180.209 110.198C181.103 110.18 182 110.061 182.887 110.158C185.952 110.494 185.919 113.614 182.637 113.369C179.509 113.136 176.369 112.178 173.664 110.815Z" fill="#FFC9B9"/>
<path d="M173.923 108.168C173.559 107.984 173.192 107.785 172.94 107.492C172.689 107.199 172.575 106.789 172.762 106.461C172.988 106.067 173.575 105.918 174.074 105.991C174.575 106.064 175.017 106.305 175.464 106.512C176.994 107.223 178.735 107.584 180.468 107.55C181.361 107.533 182.259 107.414 183.146 107.511C186.211 107.847 186.177 110.966 182.896 110.722C179.768 110.489 176.627 109.531 173.923 108.168Z" fill="#FFC9B9"/>
<path d="M176.052 106.361C175.688 106.177 175.321 105.978 175.07 105.685C174.818 105.392 174.704 104.982 174.891 104.655C175.117 104.26 175.704 104.112 176.203 104.184C176.704 104.257 177.146 104.498 177.593 104.706C179.123 105.416 180.864 105.777 182.597 105.743C183.491 105.726 184.388 105.607 185.275 105.704C188.34 106.04 188.307 109.16 185.025 108.915C181.897 108.682 178.756 107.724 176.052 106.361Z" fill="#FFC9B9"/>
<path d="M178.964 104.989C178.667 104.839 178.366 104.677 178.161 104.437C177.956 104.198 177.863 103.863 178.015 103.596C178.199 103.273 178.678 103.153 179.086 103.212C179.495 103.271 179.856 103.468 180.221 103.637C181.47 104.217 182.891 104.512 184.306 104.485C185.036 104.471 185.769 104.373 186.493 104.452C188.995 104.727 188.968 107.274 186.289 107.074C183.736 106.884 181.172 106.102 178.964 104.989Z" fill="#FFC9B9"/>
<path d="M183.039 113.382C184.97 113.258 186.084 113.072 187.903 112.495C189.723 111.918 191.416 110.846 192.217 109.313C193.018 107.78 192.72 105.762 191.218 104.698C190.324 104.064 189.128 103.829 187.974 103.835C185.585 103.848 183.231 104.874 181.789 106.53C180.347 108.186 179.849 110.434 180.48 112.437L183.039 113.382Z" fill="#FFC9B9"/>
<path d="M186.289 109.297C192.414 114.652 198.539 120.007 204.663 125.363C205.828 126.382 207.02 127.417 208.537 128.03C210.054 128.642 211.978 128.775 213.621 127.997C216.38 126.69 217.203 123.322 216.112 121.048C215.021 118.774 212.602 117.34 210.278 116.005C203.59 112.161 196.902 108.318 190.215 104.475L186.289 109.297Z" fill="#FFC9B9"/>
<path d="M231.778 56.3139C229.677 56.7703 227.716 57.5635 226.218 58.89C223.186 61.5746 222.33 65.5869 222.194 69.2111C221.951 75.7306 223.675 82.2157 227.124 87.7542C234.87 90.1352 243.524 89.5589 251.18 86.2876C252.32 81.3995 253.829 76.1037 253.39 71.1897C252.919 65.9296 250.432 58.4733 244.052 56.497C242.279 55.9477 240.375 55.7962 238.493 55.7635C236.354 55.7267 233.989 55.8335 231.778 56.3139Z" fill="#495358"/>
<path d="M232.247 58.1489C230.265 58.5794 228.413 59.3285 226.999 60.5804C224.137 63.1146 223.329 66.9018 223.201 70.3234C222.971 76.4779 224.599 82.5996 227.854 87.8281C235.167 90.0753 243.335 89.5318 250.563 86.4436C251.64 81.8293 253.064 76.8303 252.649 72.1918C252.204 67.2261 249.856 60.1877 243.834 58.3222C242.161 57.8033 240.363 57.6604 238.587 57.6294C236.568 57.5944 234.335 57.6949 232.247 58.1489Z" fill="#263238"/>
<path d="M245.123 75.9917C244.463 80.5326 244.162 85.1326 244.226 89.6982C244.238 90.6218 243.858 91.5109 243.221 92.004C241.461 93.365 239.319 93.8804 237.387 93.3793C236.405 93.1245 235.802 91.9076 235.992 90.6276C236.43 87.691 236.722 84.8939 236.922 81.8396C239.14 78.798 242.015 77.0364 245.123 75.9917Z" fill="#FFC9B9"/>
<path d="M236.921 81.8396C239.14 78.798 242.015 77.0364 245.123 75.9917C244.949 77.1868 244.802 78.3859 244.678 79.5872C242.559 83.2562 239.548 86.9023 236.268 88.5692C236.553 86.3593 236.768 84.1729 236.921 81.8396Z" fill="#FF9979"/>
<path d="M227.342 69.5699C227.472 76.8057 231.752 84.3561 233.911 84.196C241.068 83.6662 244.089 77.0921 244.114 77.0123C244.089 77.0921 245.26 77.3659 245.895 77.3338C246.521 77.3016 247.354 76.6593 247.697 76.2122C248.361 75.3483 249.035 74.0029 248.322 73.015C247.464 71.8268 245.041 71.6696 244.239 73.0649C241.15 69.9665 242.451 67.74 241.817 65.1455C237.755 63.5446 233.043 63.4682 228.702 64.6857C227.977 64.8889 227.33 68.9012 227.342 69.5699Z" fill="#FFC9B9"/>
<path d="M236.184 70.9596C236.213 70.8816 236.263 70.8144 236.333 70.7576C236.398 70.6962 236.475 70.6531 236.565 70.6279C236.651 70.5888 236.744 70.5705 236.843 70.5739C236.907 70.5814 236.971 70.5888 237.035 70.5963C237.157 70.6261 237.263 70.6801 237.353 70.7576C237.391 70.8001 237.428 70.842 237.466 70.8844C237.531 70.982 237.564 71.0876 237.564 71.2013V71.2684C237.568 71.3545 237.547 71.4355 237.502 71.5101C237.473 71.5876 237.424 71.6553 237.353 71.7121C237.288 71.7736 237.211 71.8166 237.121 71.8419C237.035 71.8809 236.942 71.8993 236.843 71.8958L236.652 71.8734C236.53 71.8436 236.423 71.7896 236.333 71.7121C236.296 71.6697 236.258 71.6278 236.221 71.5853C236.155 71.4871 236.122 71.3821 236.122 71.2684V71.2013C236.118 71.1146 236.138 71.0342 236.184 70.9596Z" fill="#3B1411"/>
<path d="M229.157 71.3481C229.186 71.2706 229.235 71.2028 229.306 71.146C229.371 71.0846 229.448 71.0415 229.538 71.0163C229.624 70.9772 229.717 70.9589 229.816 70.9623C229.88 70.9698 229.944 70.9772 230.007 70.9847C230.13 71.0146 230.236 71.0685 230.326 71.146C230.363 71.1885 230.401 71.2304 230.438 71.2729C230.504 71.3704 230.537 71.4761 230.537 71.5897V71.6569C230.541 71.7435 230.52 71.8239 230.475 71.8985C230.446 71.976 230.396 72.0437 230.326 72.1006C230.26 72.162 230.183 72.205 230.093 72.2303C230.007 72.2693 229.915 72.2877 229.815 72.2842L229.624 72.2619C229.502 72.232 229.396 72.1781 229.306 72.1006C229.268 72.0581 229.231 72.0162 229.193 71.9737C229.128 71.8756 229.095 71.7705 229.095 71.6569V71.5897C229.091 71.503 229.112 71.4227 229.157 71.3481Z" fill="#3B1411"/>
<path d="M245.355 75.3758C245.581 75.443 245.9 75.3425 245.952 75.1129C245.978 74.9958 245.909 74.8994 245.826 74.8081C245.745 74.7203 245.626 74.6686 245.508 74.6675C245.322 74.6652 245.179 74.5091 245.23 74.3501C245.447 73.6796 246.063 72.9937 246.952 73.0712C247.346 73.1056 247.705 73.2991 247.872 73.6182C247.951 73.7675 247.967 73.931 247.92 74.0889C247.893 74.1802 247.761 74.4155 247.613 74.2984C247.524 74.2284 247.552 74.1251 247.523 74.0344C247.492 73.9385 247.447 73.8472 247.382 73.764C247.251 73.5958 247.026 73.5321 246.8 73.5511C246.346 73.5889 246.056 73.9 245.887 74.2433C246.294 74.4029 246.556 74.7943 246.432 75.199C246.297 75.6375 245.723 75.9245 245.224 75.7925C244.917 75.7116 245.053 75.2863 245.355 75.3758Z" fill="#FF9979"/>
<path d="M234.178 67.562C235.657 67.3709 237.167 67.5557 238.539 68.0671C238.929 68.2123 238.62 68.7198 238.232 68.5751C236.964 68.1027 235.569 67.9598 234.207 68.1354C234.031 68.1584 233.87 68.0045 233.863 67.861C233.855 67.6929 234.001 67.585 234.178 67.562Z" fill="#263238"/>
<path d="M227.646 68.3571C228.424 67.8319 229.466 67.6534 230.409 67.9146C230.574 67.9599 230.69 68.1241 230.63 68.2722C230.572 68.4174 230.395 68.5132 230.219 68.4645C230.12 68.4369 230.021 68.4139 229.919 68.3973C229.912 68.3961 229.878 68.391 229.874 68.3904C229.859 68.3887 229.844 68.387 229.829 68.3852C229.78 68.3801 229.731 68.3761 229.682 68.3732C229.579 68.3674 229.475 68.3669 229.372 68.3709C229.345 68.372 229.317 68.3738 229.29 68.3755C229.286 68.3755 229.264 68.3778 229.255 68.3784C229.243 68.3801 229.202 68.3847 229.196 68.3852C229.169 68.3887 229.143 68.3927 229.116 68.3967C229.019 68.4116 228.924 68.4312 228.829 68.4553C228.782 68.4673 228.736 68.4805 228.689 68.4943C228.676 68.4983 228.675 68.4983 228.669 68.5C228.667 68.5006 228.669 68.5006 228.661 68.5029C228.636 68.5115 228.611 68.5207 228.586 68.5305C228.496 68.5643 228.408 68.6028 228.324 68.6453C228.277 68.6688 228.23 68.6941 228.185 68.7199C228.171 68.7279 228.158 68.736 228.144 68.744C228.14 68.7474 228.095 68.7773 228.095 68.7773C227.954 68.872 227.757 68.8835 227.628 68.7624C227.516 68.6573 227.505 68.453 227.646 68.3571Z" fill="#263238"/>
<path d="M232.416 74.2857C232.84 74.2645 232.869 74.8379 232.445 74.8592C231.818 74.8907 231.234 75.3689 231.209 75.9245C231.183 76.5042 231.715 77.0134 232.363 77.0955C232.539 77.1179 232.648 77.2969 232.611 77.4393C232.569 77.6006 232.393 77.6775 232.216 77.6551C231.279 77.5357 230.5 76.7402 230.553 75.9102C230.606 75.0555 231.432 74.3351 232.416 74.2857Z" fill="#FF9979"/>
<path d="M233.395 80.6189C234.119 80.5598 234.844 80.5007 235.568 80.441C235.74 80.4266 235.912 80.5655 235.912 80.7153C235.912 80.8772 235.782 80.9995 235.597 81.0144C234.873 81.0735 234.148 81.1326 233.424 81.1923C233.252 81.2067 233.08 81.0678 233.08 80.918C233.08 80.7567 233.21 80.6344 233.395 80.6189Z" fill="#FF9979"/>
<path d="M236.094 78.0123C235.147 78.8526 233.799 79.2711 232.455 79.1442C232.079 79.1086 232.055 79.6195 232.43 79.6551C233.915 79.7957 235.446 79.3176 236.491 78.3894C236.755 78.1552 236.359 77.777 236.094 78.0123Z" fill="black"/>
<path d="M228.217 62.5264C226.878 63.7864 229.012 65.5129 230.111 66.4336C233.686 69.4311 239.506 70.2444 244.167 71.1714C245.688 71.4739 246.383 70.6646 246.503 69.3794C246.971 64.3535 241.495 61.0208 236.274 60.6959C233.831 60.5438 230.456 60.9433 228.469 62.325C228.375 62.3904 228.291 62.4575 228.217 62.5264Z" fill="#263238"/>
<path d="M312.672 55.1143H249.982V88.2036H312.672V55.1143Z" fill="#9FDADC"/>
<path d="M253.755 74.0947H308.144" stroke="white" stroke-width="2" stroke-miterlimit="10" stroke-linecap="round"/>
<path d="M253.755 77.0146H308.144" stroke="white" stroke-width="2" stroke-miterlimit="10" stroke-linecap="round"/>
<path d="M253.755 79.9351H308.144" stroke="white" stroke-width="2" stroke-miterlimit="10" stroke-linecap="round"/>
<path d="M278.1 82.8557H308.144" stroke="white" stroke-width="2" stroke-miterlimit="10" stroke-linecap="round"/>
<path d="M305.365 59.1702L306.774 61.6533L309.925 62.0516L307.645 63.9843L308.183 66.7137L305.365 65.425L302.547 66.7137L303.084 63.9843L300.805 62.0516L303.956 61.6533L305.365 59.1702Z" fill="white"/>
<path d="M290.14 59.1702L291.549 61.6533L294.7 62.0516L292.42 63.9843L292.958 66.7137L290.14 65.425L287.322 66.7137L287.86 63.9843L285.58 62.0516L288.731 61.6533L290.14 59.1702Z" fill="white"/>
<path d="M274.915 59.1702L276.324 61.6533L279.476 62.0516L277.195 63.9843L277.734 66.7137L274.915 65.425L272.097 66.7137L272.635 63.9843L270.355 62.0516L273.506 61.6533L274.915 59.1702Z" fill="white"/>
<path d="M259.691 59.1702L261.1 61.6533L264.251 62.0516L261.97 63.9843L262.509 66.7137L259.691 65.425L256.873 66.7137L257.411 63.9843L255.13 62.0516L258.281 61.6533L259.691 59.1702Z" fill="white"/>
<path d="M266.15 107.222C268.583 111.61 270.81 116.063 272.847 120.827C273.598 122.584 274.33 124.455 273.925 126.296C273.52 128.137 271.531 129.85 269.416 129.486C267.944 129.233 266.907 128.116 266.016 127.067C263.039 123.562 260.21 119.962 257.532 116.278C261.401 114.227 264.393 110.79 266.15 107.222Z" fill="#FFC9B9"/>
<path d="M222.341 94.8782C219.908 98.7108 217.661 102.442 215.565 106.222C217.321 109.789 220.313 113.227 224.182 115.278C226.715 111.795 229.114 108.237 231.369 104.612L222.341 94.8782Z" fill="#F5A42E"/>
<path d="M215.564 106.222C213.13 110.61 210.904 115.063 208.867 119.827C208.116 121.584 207.383 123.455 207.788 125.296C208.194 127.137 210.183 128.85 212.298 128.486C213.769 128.233 214.806 127.116 215.697 126.067C218.674 122.562 221.503 118.962 224.182 115.278C220.313 113.227 217.321 109.79 215.564 106.222Z" fill="#FFC9B9"/>
<path d="M286.862 84.3194C286.958 83.9635 287.043 83.5939 286.97 83.234C286.897 82.8735 286.632 82.5205 286.229 82.4143C285.744 82.2863 285.218 82.5567 284.936 82.9229C284.653 83.2891 284.552 83.7345 284.419 84.1604C283.965 85.6155 283.073 86.9656 281.858 88.0401C281.231 88.594 280.515 89.0802 279.989 89.7087C278.169 91.8802 280.804 93.9971 282.848 91.7521C284.798 89.6117 286.149 86.9661 286.862 84.3194Z" fill="#FFC9B9"/>
<path d="M284.469 82.6681C284.565 82.3116 284.649 81.9425 284.577 81.5826C284.504 81.2222 284.239 80.8691 283.836 80.7629C283.351 80.6349 282.825 80.9053 282.543 81.2715C282.261 81.6377 282.159 82.0832 282.026 82.5091C281.572 83.9641 280.681 85.3142 279.464 86.3887C278.837 86.9426 278.122 87.4294 277.595 88.0573C275.776 90.2288 278.41 92.3457 280.455 90.1008C282.405 87.9609 283.756 85.3148 284.469 82.6681Z" fill="#FFC9B9"/>
<path d="M281.497 82.7777C281.592 82.4212 281.677 82.0521 281.605 81.6922C281.532 81.3318 281.267 80.9788 280.864 80.8726C280.379 80.7446 279.853 81.0149 279.571 81.3811C279.289 81.7473 279.187 82.1928 279.054 82.6187C278.6 84.0738 277.708 85.4238 276.492 86.4983C275.865 87.0522 275.15 87.5384 274.623 88.167C272.804 90.3384 275.438 92.4553 277.483 90.2104C279.433 88.0699 280.783 85.4244 281.497 82.7777Z" fill="#FFC9B9"/>
<path d="M278.352 83.6812C278.43 83.3902 278.499 83.0889 278.44 82.795C278.381 82.5011 278.164 82.2124 277.836 82.1257C277.44 82.0212 277.01 82.2416 276.78 82.5407C276.549 82.8397 276.466 83.2037 276.358 83.5509C275.987 84.7391 275.26 85.8412 274.266 86.7183C273.754 87.1706 273.171 87.5678 272.74 88.0804C271.255 89.8529 273.406 91.5818 275.075 89.7484C276.667 88.0023 277.77 85.8418 278.352 83.6812Z" fill="#FFC9B9"/>
<path d="M282.584 92.015C281.157 93.1532 280.237 93.7307 278.507 94.4872C276.778 95.2437 274.719 95.5818 272.886 95.0377C271.054 94.4935 269.568 92.9213 269.708 91.2418C269.791 90.2407 270.413 89.3218 271.209 88.5957C272.858 87.0924 275.33 86.3048 277.705 86.5264C280.08 86.7479 282.304 87.974 283.548 89.7471L282.584 92.015Z" fill="#FFC9B9"/>
<path d="M276.937 91.5181C277.221 101.332 277.506 111.146 277.791 120.96C277.845 122.827 277.895 124.731 277.368 126.526C276.84 128.321 275.633 130.023 273.855 130.682C270.87 131.788 267.486 129.464 266.33 126.54C265.175 123.616 265.633 120.345 266.107 117.242C267.474 108.312 268.841 99.3824 270.209 90.4521L276.937 91.5181Z" fill="#FFC9B9"/>
<path d="M267.326 109.249C267.364 108.887 268.024 108.857 267.986 109.224L267.111 117.702C267.073 118.065 266.414 118.095 266.451 117.727C266.743 114.901 267.035 112.075 267.326 109.249Z" fill="#FF9979"/>
<path d="M254.992 109.526C255.644 107.434 256.475 105.386 257.471 103.399C257.64 103.06 258.224 103.329 258.055 103.666C254.565 110.628 253.225 118.365 254.133 125.915C254.389 128.042 254.827 130.149 255.44 132.221C255.546 132.577 254.918 132.756 254.812 132.398C252.6 124.925 252.671 116.973 254.992 109.526Z" fill="#A66F1F"/>
<path d="M222.26 102.045C222.273 101.678 222.932 101.65 222.92 102.019C222.772 106.437 223.628 110.859 225.439 114.989C225.966 116.188 226.573 117.359 227.254 118.498C227.45 118.823 226.896 119.137 226.7 118.809C224.3 114.803 222.821 110.403 222.38 105.901C222.256 104.618 222.217 103.331 222.26 102.045Z" fill="#A66F1F"/>
<path d="M224.24 151.132C229.047 152.336 234.021 153.015 239.022 153.147C244.019 153.279 249.04 152.881 253.923 151.946C256.683 151.417 259.396 150.718 262.042 149.856C262.441 149.727 262.642 150.274 262.246 150.403C257.529 151.938 252.594 152.95 247.587 153.427C242.557 153.907 237.459 153.841 232.447 153.236C229.623 152.895 226.831 152.378 224.092 151.692C223.686 151.59 223.83 151.029 224.24 151.132Z" fill="#A66F1F"/>
<path d="M238.228 254.723C237.939 257.077 237.65 264.283 237.374 265.976H231.987C231.665 264.072 229.943 256.893 229.637 254.723H238.228Z" fill="#FFAB91"/>
<path d="M238.342 265.271L231.294 265.103C229.33 266.88 217.504 269.117 216.819 271.508H239.971C239.713 269.379 239.189 267.286 238.342 265.271Z" fill="white"/>
<path d="M216.819 271.508C216.753 271.737 216.685 271.965 216.633 272.197C216.551 272.561 216.863 272.901 217.29 272.901H239.383C239.772 272.901 240.084 272.613 240.054 272.276C240.031 272.02 240.002 271.764 239.971 271.508H216.819Z" fill="#508DBA"/>
<path d="M218.63 196.978C216.817 181.688 216.221 162.191 221.091 147.468C232.605 148.384 236.052 149.502 246.782 149.381C247.719 154.646 243.969 165.885 243.969 165.885L239.275 254.723H228.532C224.036 237.322 220.518 212.905 218.63 196.978Z" fill="#386CA6"/>
<path d="M257.963 254.723C257.674 257.077 256.04 264.283 255.764 265.976H250.376C250.056 264.08 249.744 256.901 249.44 254.723H257.963Z" fill="#FFAB91"/>
<path d="M249.377 265.271L256.425 265.103C258.389 266.88 261.636 269.117 262.321 271.508H247.749C248.006 269.379 248.531 267.286 249.377 265.271Z" fill="white"/>
<path d="M262.321 271.508C262.386 271.737 262.454 271.965 262.506 272.197C262.588 272.561 262.276 272.901 261.85 272.901H248.336C247.947 272.901 247.635 272.613 247.666 272.276C247.689 272.02 247.718 271.764 247.749 271.508H262.321Z" fill="#508DBA"/>
<path d="M243.518 165.885C243.518 165.885 230.61 156.398 229.751 148.315C240.48 148.436 252.14 147.26 262.367 143.93C271.713 156.093 270.671 181.688 268.858 196.978C266.969 212.906 263.451 237.322 258.955 254.723H248.211L243.518 165.885Z" fill="#508DBA"/>
<path d="M256.414 221.692C259.175 220.921 261.506 219.191 262.819 216.943C263.011 216.613 263.596 216.88 263.403 217.21C262.015 219.588 259.536 221.423 256.618 222.238C256.213 222.352 256.009 221.805 256.414 221.692Z" fill="#386CA6"/>
<path d="M261.085 153.241C257.433 152.882 253.955 151.625 251.07 149.649C250.736 149.42 250.381 149.904 250.712 150.131C253.689 152.171 257.292 153.444 261.056 153.814C261.478 153.855 261.505 153.281 261.085 153.241Z" fill="#386CA6"/>
<path d="M145.224 36.5217H111.646V63.8493H145.224V36.5217Z" fill="#9FDADC"/>
<path d="M126.927 48.6107L128.921 44.7735C129.106 44.4177 129.514 44.1892 129.963 44.1892C130.593 44.1892 131.106 44.6341 131.106 45.1834V48.6107H133.468C135.138 48.6107 136.398 49.9269 136.096 51.355L135.477 54.2784C135.244 55.3811 134.139 56.1818 132.85 56.1818H124.908V49.3977L126.927 48.6107Z" stroke="white" stroke-width="2" stroke-miterlimit="10"/>
<path d="M124.906 49.3977H120.728V56.1812H124.906V49.3977Z" stroke="white" stroke-width="2" stroke-miterlimit="10"/>
<path d="M244.331 17.6912H210.753V45.0187H244.331V17.6912Z" fill="#9FDADC"/>
<path d="M227.542 25.3557L229.784 29.3054L234.795 29.9385L231.168 33.0129L232.025 37.354L227.542 35.3043L223.06 37.354L223.916 33.0129L220.29 29.9385L225.301 29.3054L227.542 25.3557Z" fill="white"/>
</g>
<defs>
<clipPath id="clip0_20_542">
<rect width="330" height="287" fill="white"/>
</clipPath>
</defs>
</svg>
